<?xml version="1.0" encoding="UTF-8"?>
<svg width="3840px" height="2160px" viewBox="0 0 3840 2160" version="1.1" xmlns="http://www.w3.org/2000/svg" xmlns:xlink="http://www.w3.org/1999/xlink">
    <!-- Generator: Sketch 59.1 (86144) - https://sketch.com -->
    <title>画板</title>
    <desc>Created with Sketch.</desc>
    <g id="画板" stroke="none" stroke-width="1" fill="none" fill-rule="evenodd">
        <g id="ground" transform="translate(788.065587, 153.066068)" fill="#6630D0">
            <path d="M851.552691,55.700249 C1072.92251,-13.0327808 1376.59191,-17.7357177 1762.56088,41.5914382 L2128.93441,400.90221 L2128.93441,1916.65112 C1050.50329,1916.65112 341.255517,1916.65112 1.19109508,1916.65112 C1.19109508,1388.98716 -68.1623489,381.46685 851.552691,55.700249 Z"></path>
        </g>
        <g id="area" transform="translate(809.654990, 194.657507)">
            <path d="M721.357041,79.5439053 L930.543103,477.366644 L930.543103,1464.00049 L2.84217094e-14,1464.01642 C16.0456257,969.135978 120.801016,358.719868 721.357041,79.5439053 Z" id="area1" stroke="#979797" fill="#F85434"></path>
            <path d="M739.961034,79.5439053 C797.634803,187.274969 853.856794,293.130446 908.627007,397.110335 C1013.16739,363.082667 1092.39403,345.733069 1146.30693,345.061541 C1232.16084,343.992162 1319.86619,361.34176 1409.423,397.110335 C1448.04007,299.524231 1494.33862,193.668755 1548.31866,79.5439053 C1271.58186,-26.5146351 1002.12931,-26.5146351 739.961034,79.5439053 Z" id="area2" stroke="#979797" fill="#FFB000"></path>
            <polygon id="area3" fill="#FFFD00" transform="translate(1615.722491, 348.463815) rotate(-22.000000) translate(-1615.722491, -348.463815) " points="1626.22358 184.344031 1782.60907 353.503718 1605.8202 512.583599 1525.65338 428.573697 1448.83592 348.073715"></polygon>
            <polygon id="area4" stroke="#979797" fill="#50E3C2" points="1772.34501 471.342493 2095 471.342493 2094.34501 1160.34249 1772.34501 1160.34249"></polygon>
            <path d="M2094.34501,1182.34249 L2094.34501,1369.34249 L1888.34501,1369.34249 L1888.34501,1691.34249 L1566.34501,1691.34249 L1566.34501,1182.34249 L2094.34501,1182.34249 Z" id="area5" stroke="#979797" fill="#C33DFF"></path>
        </g>
    </g>
</svg>